<?xml version="1.0" encoding="utf-8"?>
<!-- Generator: Adobe Illustrator 22.1.0, SVG Export Plug-In . SVG Version: 6.00 Build 0)  -->
<svg version="1.1" id="Layer_1" xmlns="http://www.w3.org/2000/svg" xmlns:xlink="http://www.w3.org/1999/xlink" x="0px" y="0px"
	 viewBox="0 0 226.8 141.7" style="enable-background:new 0 0 226.8 141.7;" xml:space="preserve">
<style type="text/css">
	.st0{fill:#ED1C24;}
	.st1{fill-rule:evenodd;clip-rule:evenodd;fill:#ED1C24;}
	.st2{fill:#FFFFFF;}
	.st3{clip-path:url(#SVGID_2_);fill:#ED1C24;}
	.st4{clip-path:url(#SVGID_4_);fill:#ED1C24;}
	.st5{fill-rule:evenodd;clip-rule:evenodd;fill:#FFFFFF;}
	.st6{fill:#FED13B;}
	.st7{fill-rule:evenodd;clip-rule:evenodd;fill:#FED13B;}
	.st8{clip-path:url(#SVGID_6_);fill:#FED13B;}
	.st9{clip-path:url(#SVGID_8_);fill:#FED13B;}
</style>
<g>
	<path class="st0" d="M72.9,122c0.5-0.1,0.7-0.5,0.7-1.2l0-6v0c0-0.7-0.2-1.1-0.7-1.2c1.5,0,2.7-0.1,3.7-0.1c1.5,0,2.6,0.4,3.5,1.1
		c0.9,0.7,1.4,1.7,1.4,3c0,1.5-0.5,2.6-1.5,3.4c-0.9,0.7-2.1,1-3.5,1h-1.2C74.8,122.1,73.9,122.1,72.9,122 M74.8,120.5
		c0,0.4,0.1,0.7,0.3,0.8c0.2,0.1,0.7,0.2,1.3,0.2c2.5,0,3.7-1.2,3.7-3.7c0-2.5-1.3-3.7-3.8-3.7h-0.9c-0.5,0-0.7,0.2-0.7,0.4V120.5z"
		/>
	<path class="st0" d="M88.8,122.1c0,0-0.1,0-0.3,0c-0.7,0-1.5-0.1-2.5-0.1h-1.3c-0.5,0-1.1,0-1.7,0c0.5-0.1,0.7-0.5,0.7-1.2v-6
		c0-0.7-0.2-1.1-0.7-1.2v0h2.4c0.3,0,0.6,0,0.9,0c0.3,0,0.6,0,0.9,0h0.1c0.2,0,0.4,0,0.6,0c0.2,0,0.3,0,0.5,0c0.3,0,0.4,0,0.4,0.1
		v1.3c0-0.2-0.2-0.4-0.5-0.5c-0.3-0.1-0.8-0.2-1.6-0.3c-0.2,0-0.4,0-0.7,0h-0.9c-0.1,0-0.2,0-0.3,0.1c0,0,0,0.1,0,0.2v2.7
		c0,0.1,0.1,0.1,0.2,0.1h0.8c0.4,0,1,0,1.7,0c0.4,0,0.6-0.1,0.8-0.2c0.2-0.2,0.3-0.3,0.3-0.6h0c0,0.3,0,1,0,2.1
		c-0.1-0.5-0.5-0.7-1.2-0.7c-0.3,0-0.6,0-1,0c-0.4,0-0.9,0-1.4,0c-0.1,0-0.1,0-0.1,0.1v2.8c0,0.4,0.2,0.6,0.7,0.7c0.1,0,0.5,0,1.2,0
		c0.3,0,0.6,0,0.8-0.1c0.5-0.1,0.9-0.3,1.2-0.5c0.2-0.2,0.4-0.4,0.5-0.6l-0.3,1.7L88.8,122.1L88.8,122.1z"/>
	<path class="st0" d="M97.8,113.5h1.6c-0.2,0-0.4,0.1-0.5,0.3c-0.1,0.2-0.2,0.3-0.4,0.5c-0.1,0.2-0.4,0.7-0.9,1.8
		c-0.2,0.5-0.4,1-0.6,1.3c-0.2,0.4-0.3,0.7-0.4,1c-0.3,0.8-0.6,1.5-0.9,2.2c-0.3,0.7-0.5,1.3-0.8,2c-0.6-1.4-1.2-2.7-1.7-4.1
		c-0.6-1.3-1.1-2.6-1.7-3.9c-0.3-0.7-0.6-1.1-1.2-1.2l2,0c0.2,0.5,0.5,1.3,0.9,2.4c0.4,1.1,1,2.5,1.8,4.1c0,0.1,0.1,0.1,0.1,0.1
		c0,0,0.1,0,0.1-0.1L97.8,113.5z"/>
	<path class="st0" d="M106.2,122.1c0,0-0.1,0-0.3,0c-0.7,0-1.5-0.1-2.5-0.1h-1.3c-0.5,0-1.1,0-1.7,0c0.5-0.1,0.7-0.5,0.7-1.2v-6
		c0-0.7-0.2-1.1-0.7-1.2v0h2.4c0.3,0,0.6,0,0.9,0c0.3,0,0.6,0,0.9,0h0.1c0.2,0,0.4,0,0.6,0c0.2,0,0.3,0,0.5,0c0.3,0,0.4,0,0.4,0.1
		v1.3c0-0.2-0.2-0.4-0.5-0.5c-0.3-0.1-0.8-0.2-1.6-0.3c-0.2,0-0.4,0-0.6,0h-0.9c-0.1,0-0.2,0-0.3,0.1c0,0,0,0.1,0,0.2v2.7
		c0,0.1,0.1,0.1,0.2,0.1h0.8c0.4,0,1,0,1.7,0c0.4,0,0.6-0.1,0.8-0.2c0.2-0.2,0.3-0.3,0.3-0.6h0c0,0.3,0,1,0,2.1
		c-0.1-0.5-0.5-0.7-1.2-0.7c-0.3,0-0.6,0-1,0c-0.4,0-0.9,0-1.4,0c-0.1,0-0.1,0-0.1,0.1v2.8c0,0.4,0.2,0.6,0.7,0.7c0.1,0,0.5,0,1.2,0
		c0.3,0,0.6,0,0.8-0.1c0.5-0.1,0.9-0.3,1.2-0.5c0.2-0.2,0.4-0.4,0.5-0.6l-0.3,1.7L106.2,122.1L106.2,122.1z"/>
	<path class="st0" d="M110.1,120.6c0,0.4,0.2,0.6,0.7,0.7c0.1,0,0.5,0,1.2,0c0.3,0,0.6,0,0.8-0.1c0.5-0.2,0.9-0.3,1.2-0.5
		c0.2-0.2,0.4-0.4,0.5-0.6l-0.3,1.7l0,0.1h-0.4c-0.7,0-1.5-0.1-2.5-0.1H110c-0.5,0-1.1,0-1.7,0c0.5-0.1,0.7-0.5,0.7-1.2v-6h0
		c0-0.7-0.2-1.1-0.7-1.2v0h2.6v0c-0.2,0-0.4,0.2-0.5,0.4c-0.1,0.2-0.2,0.6-0.2,1.1V120.6z"/>
	<path class="st0" d="M124.6,118.1c0,1.2-0.5,2.3-1.4,3.1c-0.9,0.8-2,1.3-3.2,1.3c-1.3,0-2.4-0.4-3.3-1.2c-0.9-0.8-1.3-1.9-1.3-3.1
		c0-1.2,0.5-2.3,1.4-3.1c0.9-0.8,2-1.3,3.2-1.3c1.3,0,2.4,0.4,3.3,1.2C124.2,115.7,124.6,116.8,124.6,118.1 M123.3,118.3
		c0-1.2-0.3-2.2-1-2.9c-0.6-0.7-1.5-1-2.6-1c-0.4,0-0.8,0.1-1.2,0.3c-0.4,0.2-0.7,0.4-0.9,0.7c-0.3,0.3-0.5,0.7-0.6,1.1
		c-0.2,0.4-0.2,0.9-0.2,1.4c0,1.3,0.3,2.3,1,3c0.6,0.7,1.5,1,2.6,1c0.9,0,1.6-0.3,2.2-1C123,120.2,123.3,119.3,123.3,118.3"/>
	<path class="st0" d="M128.7,122l-1.1,0h-0.3l-1.1,0v0c0.4,0,0.6-0.3,0.7-0.9V121c0,0,0-0.1,0-0.2v-6c0-0.7-0.2-1.1-0.7-1.2l3.3,0
		c0.7,0,1.3,0.2,1.7,0.5c0.5,0.3,0.8,0.8,0.8,1.5c0,0.9-0.5,1.6-1.6,2.2c-0.1,0.1-0.2,0.1-0.3,0.1c-0.1,0-0.2,0.1-0.3,0.1
		c0,0-0.1,0-0.2,0c-0.1,0-0.3,0-0.6,0c-0.2,0-0.4,0-0.5,0c-0.1,0-0.3,0-0.4,0l0,2.6C128,121.5,128.2,121.9,128.7,122L128.7,122
		L128.7,122z M130.5,115.6L130.5,115.6c0-0.3,0-0.5-0.1-0.7c-0.1-0.2-0.2-0.3-0.3-0.4v0c-0.3-0.3-0.7-0.4-1.3-0.4
		c-0.5,0-0.8,0.1-0.8,0.2v0.1l0,3.2h0.5c0.3,0,0.5,0,0.8-0.1h0c0.3-0.1,0.6-0.2,0.8-0.5C130.4,116.7,130.6,116.2,130.5,115.6
		L130.5,115.6z"/>
	<path class="st0" d="M134.4,116.6l0,3.3v1c0,0.7,0.2,1.1,0.7,1.2H133v0c0.5-0.1,0.7-0.5,0.7-1.1v-1.1l0-4.8v-0.7c0-0.2,0-0.4,0-0.5
		h0l4.5,6.5c0.3-0.4,0.8-1.1,1.6-2.2c0.8-1.1,1.8-2.5,3.1-4.2v7.1c0,0.7,0.2,1.1,0.7,1.1v0l-1.1,0h-0.2h-0.6c-0.2,0-0.4,0-0.6,0
		c0.5-0.1,0.7-0.5,0.7-1.2l-0.1-4.4l-3.8,5.6C137.6,121.5,136.4,119.7,134.4,116.6"/>
	<path class="st0" d="M151,122.1c0,0-0.1,0-0.3,0c-0.7,0-1.5-0.1-2.5-0.1h-1.3c-0.5,0-1.1,0-1.7,0c0.5-0.1,0.7-0.5,0.7-1.2v-6
		c0-0.7-0.2-1.1-0.7-1.2v0h2.4c0.3,0,0.7,0,0.9,0c0.3,0,0.6,0,0.9,0h0.1c0.2,0,0.4,0,0.6,0c0.2,0,0.3,0,0.5,0c0.3,0,0.4,0,0.4,0.1
		v1.3c0-0.2-0.2-0.4-0.5-0.5c-0.3-0.1-0.8-0.2-1.6-0.3c-0.2,0-0.4,0-0.7,0h-0.9c-0.1,0-0.2,0-0.3,0.1c0,0,0,0.1,0,0.2v2.7
		c0,0.1,0.1,0.1,0.2,0.1h0.8c0.4,0,1,0,1.7,0c0.3,0,0.6-0.1,0.8-0.2c0.2-0.2,0.3-0.3,0.3-0.6h0c0,0.3,0,1,0,2.1
		c-0.1-0.5-0.5-0.7-1.2-0.7c-0.3,0-0.6,0-1,0c-0.4,0-0.9,0-1.4,0c-0.1,0-0.1,0-0.1,0.1v2.8c0,0.4,0.2,0.6,0.7,0.7c0.1,0,0.5,0,1.2,0
		c0.3,0,0.6,0,0.8-0.1c0.5-0.1,0.9-0.3,1.2-0.5c0.2-0.2,0.4-0.4,0.5-0.6l-0.3,1.7L151,122.1L151,122.1z"/>
	<path class="st0" d="M161.3,114.7l0,4.6c0,0.5,0,0.9,0,1.3c0,0.4,0,0.7,0,1c0,0.2,0,0.3-0.1,0.3h-0.1c-0.4-0.4-1.1-1.1-2.2-2.2
		c-1.1-1-2.5-2.4-4.4-4.1l0,4v1c0,0.7,0.2,1.1,0.7,1.2v0h-2.2v0c0.5-0.1,0.7-0.5,0.7-1.2v-1.1l0-4.8V114c0-0.2,0-0.4,0-0.5h0l6.5,6
		c0.1,0.1,0.1,0.1,0.2,0.1c0,0,0-0.1,0-0.2v-4.7c0-0.7-0.2-1.1-0.7-1.2h2.2C161.6,113.6,161.3,114,161.3,114.7"/>
	<path class="st0" d="M171.8,113.6c0,0.4,0,0.8,0,1.1v0.9h-0.1c-0.4-0.6-0.7-1-1-1.2c-0.3-0.2-0.9-0.4-1.8-0.4h-0.5
		c-0.2,0-0.2,0.1-0.3,0.1c0,0,0,0.1,0,0.1v6.4c0,0.2,0.1,0.4,0.2,0.6c0.2,0.3,0.5,0.4,0.8,0.5l0,0c0,0-0.1,0-0.3,0c-1.1,0-2,0-2.6,0
		c-0.1,0-0.2,0-0.3-0.1c0.3,0,0.5-0.1,0.7-0.3c0.2-0.2,0.3-0.4,0.3-0.7v-6.6c0-0.1,0-0.2-0.1-0.2h-0.7c-0.8,0-1.4,0.1-1.8,0.4
		c-0.3,0.2-0.6,0.6-1,1.2h-0.1v-0.9c0-0.3,0-0.7,0-1.1l3.6,0L171.8,113.6z"/>
	<path class="st0" d="M65.9,114.2l-3.9,0h-0.8c-1.2,0-2.6,0-4.2,0v0c0.8-0.1,1.4-0.5,1.8-1.2c0.4-0.7,0.7-1.6,0.7-2.8l0-6.8
		c-2-3.9-4.3-7.4-6.8-10.5c-2.6-3.1-4.3-5.1-5.1-6c-0.8-0.8-1.8-1.3-2.8-1.3c0.1-0.1,0.5-0.2,1.2-0.1c2.3,0,4.3,0,6.1,0l2.3,3.7
		c0.2,0.4,0.5,0.7,0.8,1.1l6.5,9.6c0.2,0.3,0.3,0.4,0.4,0.4c0.1,0,0.3-0.1,0.4-0.4c0.6-1,1.7-2.5,3.3-4.7c1.6-2.2,3.9-5.4,7-9.5
		l0.1-0.1h3.9v0.1c-0.2,0-0.5,0.1-0.7,0.2c-0.2,0.2-0.5,0.3-0.7,0.4c-1,0.9-2.1,2.2-3.4,3.9c-2.6,3.3-4.2,5.4-4.8,6.3
		c-1.5,2-2.8,3.9-3.9,5.7l0.1,8c0,1.2,0.2,2.1,0.7,2.8C64.6,113.6,65.2,114,65.9,114.2L65.9,114.2z"/>
	<path class="st0" d="M97.8,98.6c0,2.5-0.9,4.5-2.7,6.1c-1.7,1.6-3.8,2.5-6.3,2.5c-2.6,0-4.7-0.8-6.4-2.3c-1.8-1.6-2.6-3.6-2.6-6.2
		c0-2.5,0.9-4.5,2.7-6.2c1.7-1.6,3.9-2.5,6.4-2.5c2.6,0,4.7,0.8,6.4,2.4C97,94,97.8,96.1,97.8,98.6 M95.3,99c0-2.4-0.7-4.3-2-5.7
		c-1.3-1.4-2.9-2.1-5-2.1c-0.9,0-1.7,0.2-2.4,0.5c-0.7,0.3-1.3,0.8-1.9,1.4c-0.5,0.6-0.9,1.3-1.2,2.2c-0.3,0.9-0.4,1.8-0.4,2.8
		c0,2.5,0.6,4.4,1.9,5.8c1.3,1.3,3,2,5.1,2c1.7,0,3.2-0.6,4.3-1.9C94.7,102.8,95.3,101.1,95.3,99"/>
	<path class="st0" d="M113.6,89.7l4.3,0v0c-0.9,0.1-1.4,0.9-1.4,2.3v7.3c0.1,2.3-0.4,4.1-1.6,5.3c-1.2,1.3-3,1.9-5.3,1.9
		c-4.9,0-7.4-2.3-7.4-6.9V92c0-1.4-0.5-2.1-1.4-2.3v0h5.1c-0.4,0.1-0.8,0.4-1,0.8c-0.2,0.4-0.4,1.1-0.4,2.1v6.5
		c0,2.2,0.4,3.7,1.3,4.7c0.9,1,2.3,1.5,4.3,1.5c3.4,0,5.1-1.9,5.1-5.8l0-7.5C115,90.6,114.5,89.9,113.6,89.7"/>
	<path class="st0" d="M136.7,89.8c0,0.8,0,1.5,0,2.2v1.9h-0.1c-0.8-1.1-1.4-1.9-1.9-2.3c-0.7-0.5-1.8-0.7-3.5-0.7h-0.9
		c-0.3,0-0.5,0.1-0.5,0.2c0,0,0,0.1,0,0.2v12.6c0,0.5,0.1,0.9,0.4,1.2c0.4,0.5,0.9,0.9,1.5,1l0,0c-0.1,0.1-0.3,0.1-0.6,0.1
		c-2.2-0.1-3.9-0.1-5.1,0c-0.2,0-0.4,0-0.5-0.1c0.6,0,1.1-0.2,1.5-0.6c0.4-0.4,0.6-0.8,0.6-1.3V91.3c0-0.2-0.1-0.3-0.3-0.4h-1.3
		c-1.6,0-2.8,0.2-3.5,0.7c-0.5,0.4-1.2,1.2-1.9,2.3h-0.1v-1.9c0-0.7,0-1.4,0-2.2l7,0L136.7,89.8z"/>
	<path class="st0" d="M154.8,106.4h-0.4h-1.1c-0.4,0-0.8,0-1.3,0c0.9-0.1,1.4-0.9,1.4-2.3v-4.7c0-0.4,0-0.6-0.1-0.7
		c-0.1-0.1-0.3-0.2-0.6-0.2h-8.8c-0.4,0-0.6,0.1-0.7,0.2c-0.1,0.1-0.1,0.3-0.1,0.7v4.7c0,1.3,0.5,2.1,1.4,2.2v0l-2.2,0h-0.4h-1.1
		c-0.4,0-0.8,0-1.3,0c1-0.1,1.4-0.9,1.4-2.3V92.6h0v0c0-1.3-0.5-2.1-1.4-2.3v0h5.1v0c-0.4,0.1-0.8,0.3-1,0.7
		c-0.2,0.4-0.4,1.2-0.4,2.2v3.3c0,0.6,0.3,0.9,0.8,0.9h8.7c0.3,0,0.6,0,0.7-0.1c0.1-0.1,0.2-0.4,0.2-0.8v-3.9c0-1.4-0.5-2.1-1.4-2.3
		v0h5.1v0c-0.4,0.1-0.8,0.4-1,0.8c-0.2,0.4-0.4,1.2-0.4,2.2v11c0,1.4,0.5,2.1,1.4,2.3L154.8,106.4z"/>
	<path class="st0" d="M163.8,100.3c-0.4,0-0.8-0.1-0.8-0.5c0-0.4,0.3-0.7,0.4-0.9c0.2-0.3,12.7-16.7,12.9-17
		c0.3-0.3,0.5-0.6,0.9-0.6c0.3,0,0.4,0.2,0.4,0.6c0,0.5,0,2.8,0,5v10.8h2.6c0.9,0,1.3-0.3,1.5-0.3c0.2,0,0.3,0.1,0.3,0.4
		c0,0.3-0.3,1.7-0.6,2.1c-0.2,0.3-0.3,0.4-0.9,0.4h-2.9c0,1.1,0,2.6,0.1,4c0.1,1,0.3,1.6,1.4,1.9c0.5,0.1,1.2,0.1,1.5,0.1
		c0.2,0,0.3,0.1,0.3,0.3c0,0.2-0.2,0.3-0.5,0.3c-1.9,0-4-0.1-4.7-0.1c-0.9,0-2.7,0.1-4.6,0.1c-0.4,0-0.5-0.1-0.5-0.3
		c0-0.2,0.1-0.3,0.3-0.3c0.3,0,1,0,1.6-0.1c1.3-0.1,1.5-0.9,1.6-1.9c0.1-1.5,0.1-3,0.1-4H163.8z M174.1,87.4L174.1,87.4
		c-0.9,1.1-6.4,8.8-7.5,10.3h7.5V87.4z"/>
	<path class="st0" d="M116.8,65.7c1.6,0.8,3.8,1.7,5.8,2.9c3.9,2.4,5.1,6.7,3,10.8c-1,2-2.5,3.9-3.7,5.8
		c9.5-6.6,20.5-26.5,20.2-36.5C139.1,58.4,131,66.2,116.8,65.7"/>
	<path class="st1" d="M143.8,39.9c-0.3,1.1-0.7,2.1-1.1,3.1c-1.1,2.5-2.7,5-5.2,6.3c-1.8,0.9-3.9,0.8-5.8,0.2
		c3.4-1.4,6.3-3.9,8.8-6.5c-2.8,2.3-5.8,4.5-9.2,5.7c0-0.2,0-0.5,0.1-0.7c0.2-2.2,1.2-4.4,3.1-5.8C137.1,40.3,140.6,40,143.8,39.9"
		/>
	<path class="st2" d="M102.7,27.9c-1-1.2-2.1-2.4-3.3-3.4c-0.3,0.6-0.5,1.2-0.7,1.7c-0.1,0.2-0.2,0.5-0.3,0.7
		c-1,2.8-1.6,5.8-0.8,8.7c0.7,2.4,2.6,4.3,4.8,5.4c0.2-3-0.1-6.1-0.8-9c-0.2-1-0.4-2.1-0.9-3.1c0.1,0.1,0.2,0.2,0.4,0.4
		c0.2,0.8,0.5,1.5,0.7,2.3c1,3,1.7,6.2,1.5,9.4c1.5-1.6,2.6-3.7,2.5-5.9c0-0.6-0.1-1.3-0.3-1.9C105.1,31.2,104,29.4,102.7,27.9"/>
	<g>
		<defs>
			<path id="SVGID_1_" d="M98.7,26.2c-0.1,0.2-0.2,0.5-0.3,0.7c-1,2.8-1.6,5.8-0.8,8.7c0.7,2.4,2.6,4.3,4.8,5.4c0.2-3-0.1-6.1-0.8-9
				c-0.2-1-0.4-2.1-0.9-3.1c0.1,0.1,0.2,0.2,0.4,0.4c0.2,0.8,0.5,1.5,0.8,2.3c1,3,1.7,6.2,1.5,9.4c1.5-1.6,2.6-3.7,2.5-5.9
				c0-0.6-0.1-1.3-0.3-1.9c-0.5-2-1.6-3.8-2.9-5.3c-1-1.2-2.1-2.4-3.3-3.4C99.1,25,98.9,25.6,98.7,26.2"/>
		</defs>
		<use xlink:href="#SVGID_1_"  style="overflow:visible;fill:#ED1C24;"/>
		<clipPath id="SVGID_2_">
			<use xlink:href="#SVGID_1_"  style="overflow:visible;"/>
		</clipPath>
		<rect x="96.9" y="24.2" transform="matrix(0.9712 -0.2382 0.2382 0.9712 -4.8882 25.0836)" class="st3" width="8.9" height="17"/>
	</g>
	<g>
		<defs>
			<path id="SVGID_3_" d="M92.5,47.4c1.6,1.6,3.9,2.1,6,2c0,0,0.1-0.1,0.1-0.1c-1.5-2.9-3.8-5.3-6.2-7.5c2.7,2,5.2,4.3,6.9,7.2
				c0.2-1.1,0.2-2.3-0.1-3.4c-0.2-0.7-0.5-1.5-1-2.1c-0.5-0.7-1.1-1.3-1.8-1.8c-2.2-1.6-4.9-2.3-7.5-2.7
				C89.5,42,90.3,45.2,92.5,47.4"/>
		</defs>
		<use xlink:href="#SVGID_3_"  style="overflow:visible;fill:#ED1C24;"/>
		<clipPath id="SVGID_4_">
			<use xlink:href="#SVGID_3_"  style="overflow:visible;"/>
		</clipPath>
		<rect x="90.1" y="37.8" transform="matrix(0.9712 -0.2382 0.2382 0.9712 -7.7544 23.7966)" class="st4" width="9" height="12.4"/>
	</g>
	<path class="st5" d="M123,32.1c0.2,1.8,0.4,3.9-0.6,5.5c-0.6,1.1-1.8,1.6-3,1.8c1.3-1.4,2.1-3.1,2.7-4.9c-0.8,1.6-1.7,3.3-3.1,4.6
		c-0.4-1.1-0.6-2.5,0-3.6C119.8,33.9,121.4,32.9,123,32.1"/>
	<path class="st1" d="M117.4,23.7c0.6,2.6,0.7,5.4-0.5,7.9c-0.9,2-2.9,3.4-4.9,4.2c1.6-2.8,2.4-6,2.9-9.1c0.1-0.8,0.2-1.6,0.4-2.4
		c-0.1-0.2-0.1-0.3-0.2-0.5c0,1.1-0.3,2.1-0.6,3.2c-0.7,2.9-1.8,5.8-3.4,8.4c-1.5-2-2.3-4.5-1.9-7c0.5-3,2.5-5.4,4.6-7.4
		c0.2-0.2,0.4-0.4,0.6-0.5c0.5-0.4,1-0.8,1.4-1.2C116.5,20.6,117,22.1,117.4,23.7"/>
	<path class="st1" d="M135.3,29.3c-0.4,2.6-1.4,5.3-3.4,7.1c-1.6,1.5-3.9,2.1-6.1,2c2.6-2,4.5-4.6,6.1-7.4c0.4-0.7,0.7-1.4,1.2-2.1
		c0-0.2,0-0.3,0-0.5c-0.4,1-1.1,1.9-1.7,2.7c-1.8,2.5-3.8,4.7-6.3,6.5c-0.6-2.4-0.5-5.1,0.9-7.2c1.6-2.5,4.3-4.1,7-5.2
		c0.2-0.1,0.5-0.2,0.7-0.3c0.6-0.2,1.2-0.4,1.8-0.6C135.7,26.1,135.6,27.7,135.3,29.3"/>
	<path class="st6" d="M108.3,65.7c-1.6,0.8-3.8,1.7-5.8,2.9c-3.9,2.4-5.1,6.7-3,10.8c1,2,2.5,3.9,3.7,5.8
		C93.8,78.7,82.8,58.8,83,48.8C86,58.4,94.1,66.2,108.3,65.7"/>
	<path class="st7" d="M115.7,53c-0.1-0.4-0.5-0.6-0.9-0.5c-0.4,0.1-0.6,0.5-0.5,0.9c0.1,0.4,0.5,0.6,0.9,0.5
		C115.6,53.7,115.8,53.4,115.7,53"/>
	<path class="st7" d="M98.2,53.5c-0.1-0.4-0.6-0.7-1-0.6c-0.5,0.1-0.8,0.6-0.6,1c0.1,0.4,0.6,0.7,1,0.6C98,54.4,98.3,53.9,98.2,53.5
		"/>
	<path class="st7" d="M125.7,45.8c-0.1,0.2-0.2,0.5-0.3,0.7c-0.6,1.3-1.4,2.5-2.6,3.1c-0.9,0.4-1.9,0.3-2.9,0.1
		c1.6-0.7,3-1.8,4.3-3.1c-1.4,1.1-2.8,2.1-4.5,2.7c0.1-1,0.4-2.1,1.1-2.8c0.9-0.9,2.1-1.2,3.3-1.4c0.6-0.1,1.1-0.1,1.7-0.1"/>
	<path class="st7" d="M91.9,52.1c1.7,0.2,3,1.6,3.2,3.2c-1.3-1.1-3-1.7-4.6-2.2c1.5,0.7,3.1,1.4,4.3,2.5c-1.4,0.8-3.3,0.7-4.5-0.4
		c-1-0.8-1.7-1.8-2.3-2.9C89.3,52.1,90.6,51.9,91.9,52.1"/>
	<path class="st7" d="M115.1,42.1c0.5,1.8,0.7,3.9-0.1,5.7c-0.5,1.2-1.8,2-3,2.3c1.2-1.6,1.9-3.4,2.3-5.3c-0.7,1.8-1.5,3.6-2.7,5
		c-0.6-1.2-0.9-2.6-0.4-3.8C112,44.2,113.5,43,115.1,42.1"/>
	<path class="st6" d="M104.5,44.5c-0.4,0.5-0.8,1.1-1,1.7c-0.4,1.1-0.1,2.3,0.3,3.3c1.1-1.3,2-2.8,2.6-4.4c0.1-0.1,0.2-0.2,0.2-0.2
		c-0.5,1.8-1.3,3.5-2.4,5c0.6-0.2,1.2-0.4,1.7-0.7c0.7-0.5,1.2-1.2,1.5-2c0.5-1.6,0.3-3.3,0-4.9C106.3,42.9,105.3,43.6,104.5,44.5"
		/>
	<g>
		<defs>
			<path id="SVGID_5_" d="M104.5,44.5c-0.4,0.5-0.8,1.1-1,1.7c-0.4,1.1-0.1,2.3,0.3,3.3c1.1-1.3,2-2.8,2.6-4.4
				c0.1-0.1,0.2-0.2,0.2-0.2c-0.5,1.8-1.3,3.5-2.4,5c0.6-0.2,1.2-0.4,1.7-0.7c0.7-0.5,1.2-1.2,1.5-2c0.5-1.6,0.3-3.3,0-4.9
				C106.3,42.9,105.3,43.6,104.5,44.5"/>
		</defs>
		<clipPath id="SVGID_6_">
			<use xlink:href="#SVGID_5_"  style="overflow:visible;"/>
		</clipPath>
		
			<rect x="102.9" y="42.9" transform="matrix(0.9712 -0.2381 0.2381 0.9712 -7.948 26.4671)" class="st8" width="5.4" height="6.6"/>
	</g>
	<g>
		<defs>
			<path id="SVGID_7_" d="M119,35.6c-0.6,1.1-0.4,2.5,0,3.6c1.4-1.2,2.2-2.9,3.1-4.6c-0.6,1.8-1.4,3.5-2.7,4.9
				c1.2-0.2,2.4-0.7,3-1.8c1-1.6,0.8-3.7,0.6-5.5C121.4,32.9,119.8,33.9,119,35.6"/>
		</defs>
		<clipPath id="SVGID_8_">
			<use xlink:href="#SVGID_7_"  style="overflow:visible;"/>
		</clipPath>
		
			<rect x="118.1" y="32.7" transform="matrix(0.9712 -0.2381 0.2381 0.9712 -5.0742 29.8439)" class="st9" width="5.8" height="6.4"/>
	</g>
	<path class="st7" d="M88.9,30.8c1.6,0.2,3.3,0.5,4.7,1.5c0.7,0.5,1.2,1.2,1.4,2c0.1,0.6,0.1,1.2,0.1,1.8c-1.1-1.5-2.5-2.7-4-3.8
		c0,0.1,0.1,0.2,0.2,0.3c1.4,1,2.6,2.3,3.5,3.8c-1.1,0.1-2.3,0-3.3-0.7c-0.6-0.4-1-0.9-1.3-1.5C89.5,33.3,89.1,32,88.9,30.8"/>
</g>
</svg>
